# xmcd CD database file
#
# Track frame offsets:
#	150
#	14193
#	47018
#	72901
#	94750
#	115782
#	135988
#	157940
#	183111
#	223723
#
# Disc length: 3346 seconds
#
# Revision: 8
# Processed by: cddbd v1.5.2PL0 Copyright (c) Steve Scherf et al.
# Submitted via: CDex 1.70beta2
#
DISCID=820d100a
DTITLE=Moore Gary - Old New Ballads Blues
DYEAR=2006
DGENRE=Blues
TTITLE0=Done Something Wrong
TTITLE1=You Know My Love
TTITLE2=Midnight Blues [2006]
TTITLE3=Ain't Nobody
TTITLE4=Gonna Rain Today
TTITLE5=All Your Love [2006]
TTITLE6=Flesh and Blood
TTITLE7=Cut It Out
TTITLE8=No Reason To Cry
TTITLE9=I'll Play The Blues For You
EXTD=YEAR: 2006
EXTT0=
EXTT1=
EXTT2=
EXTT3=
EXTT4=
EXTT5=
EXTT6=
EXTT7=
EXTT8=
EXTT9=
PLAYORDER=
